<svg xmlns="http://www.w3.org/2000/svg" width="640" height="640" viewBox="0 0 640 640" role="img" aria-label="QR Code Pix inteira">
  <rect width="640" height="640" fill="#ffffff"/>
  <rect x="40" y="40" width="560" height="560" rx="24" fill="#f4f6ff" stroke="#2f67eb" stroke-width="12"/>
  <rect x="88" y="88" width="130" height="130" fill="#10162f"/>
  <rect x="118" y="118" width="70" height="70" fill="#ffffff"/>
  <rect x="422" y="88" width="130" height="130" fill="#10162f"/>
  <rect x="452" y="118" width="70" height="70" fill="#ffffff"/>
  <rect x="88" y="422" width="130" height="130" fill="#10162f"/>
  <rect x="118" y="452" width="70" height="70" fill="#ffffff"/>
  <g fill="#10162f">
    <rect x="280" y="98" width="34" height="34"/>
    <rect x="330" y="98" width="34" height="34"/>
    <rect x="280" y="148" width="84" height="34"/>
    <rect x="250" y="248" width="34" height="34"/>
    <rect x="304" y="248" width="84" height="34"/>
    <rect x="430" y="248" width="34" height="34"/>
    <rect x="250" y="304" width="34" height="84"/>
    <rect x="330" y="330" width="34" height="34"/>
    <rect x="386" y="304" width="84" height="34"/>
    <rect x="500" y="330" width="34" height="84"/>
    <rect x="250" y="450" width="84" height="34"/>
    <rect x="360" y="420" width="34" height="34"/>
    <rect x="420" y="450" width="112" height="34"/>
    <rect x="302" y="520" width="34" height="34"/>
    <rect x="390" y="520" width="34" height="34"/>
    <rect x="478" y="520" width="34" height="34"/>
  </g>
  <text x="320" y="610" text-anchor="middle" font-family="Arial, sans-serif" font-size="28" font-weight="700" fill="#10162f">PIX INTEIRA - R$ 70,00</text>
</svg>
