<svg xmlns="http://www.w3.org/2000/svg" width="640" height="640" viewBox="0 0 640 640" role="img" aria-label="QR Code Pix meia promocional">
  <rect width="640" height="640" fill="#ffffff"/>
  <rect x="40" y="40" width="560" height="560" rx="24" fill="#f5fffb" stroke="#087f6b" stroke-width="12"/>
  <rect x="88" y="88" width="130" height="130" fill="#10162f"/>
  <rect x="118" y="118" width="70" height="70" fill="#ffffff"/>
  <rect x="422" y="88" width="130" height="130" fill="#10162f"/>
  <rect x="452" y="118" width="70" height="70" fill="#ffffff"/>
  <rect x="88" y="422" width="130" height="130" fill="#10162f"/>
  <rect x="118" y="452" width="70" height="70" fill="#ffffff"/>
  <g fill="#10162f">
    <rect x="254" y="90" width="34" height="84"/>
    <rect x="320" y="124" width="84" height="34"/>
    <rect x="254" y="224" width="84" height="34"/>
    <rect x="386" y="224" width="34" height="34"/>
    <rect x="480" y="252" width="34" height="34"/>
    <rect x="254" y="304" width="34" height="34"/>
    <rect x="318" y="304" width="34" height="84"/>
    <rect x="386" y="330" width="84" height="34"/>
    <rect x="502" y="330" width="34" height="34"/>
    <rect x="252" y="442" width="34" height="34"/>
    <rect x="318" y="442" width="84" height="34"/>
    <rect x="454" y="416" width="34" height="84"/>
    <rect x="286" y="520" width="34" height="34"/>
    <rect x="354" y="520" width="34" height="34"/>
    <rect x="442" y="520" width="84" height="34"/>
  </g>
  <text x="320" y="610" text-anchor="middle" font-family="Arial, sans-serif" font-size="28" font-weight="700" fill="#10162f">PIX MEIA/PROMOCIONAL - R$ 35,00</text>
</svg>
