<svg width="480" height="480" viewBox="0 0 480 480" fill="none" xmlns="http://www.w3.org/2000/svg" role="img" aria-label="QR Code Pix placeholder">
  <rect width="480" height="480" fill="#fffefa"/>
  <rect x="28" y="28" width="424" height="424" rx="8" fill="#fffefa" stroke="#1f1b1c" stroke-width="10"/>
  <rect x="64" y="64" width="104" height="104" fill="#1f1b1c"/>
  <rect x="88" y="88" width="56" height="56" fill="#fffefa"/>
  <rect x="312" y="64" width="104" height="104" fill="#1f1b1c"/>
  <rect x="336" y="88" width="56" height="56" fill="#fffefa"/>
  <rect x="64" y="312" width="104" height="104" fill="#1f1b1c"/>
  <rect x="88" y="336" width="56" height="56" fill="#fffefa"/>
  <rect x="208" y="64" width="32" height="32" fill="#1f1b1c"/>
  <rect x="240" y="96" width="32" height="32" fill="#1f1b1c"/>
  <rect x="208" y="144" width="64" height="32" fill="#1f1b1c"/>
  <rect x="192" y="208" width="32" height="96" fill="#1f1b1c"/>
  <rect x="240" y="208" width="64" height="32" fill="#1f1b1c"/>
  <rect x="336" y="208" width="32" height="32" fill="#1f1b1c"/>
  <rect x="384" y="208" width="32" height="64" fill="#1f1b1c"/>
  <rect x="240" y="272" width="32" height="32" fill="#1f1b1c"/>
  <rect x="304" y="272" width="64" height="32" fill="#1f1b1c"/>
  <rect x="208" y="336" width="64" height="32" fill="#1f1b1c"/>
  <rect x="304" y="336" width="32" height="80" fill="#1f1b1c"/>
  <rect x="368" y="320" width="48" height="32" fill="#1f1b1c"/>
  <rect x="368" y="384" width="48" height="32" fill="#1f1b1c"/>
  <text x="240" y="455" text-anchor="middle" font-family="Arial, sans-serif" font-size="20" fill="#5d1630">Substitua pelo QR Code Pix Nubank</text>
</svg>
